<svg width="15" height="15" viewBox="0 0 15 15" fill="none" xmlns="http://www.w3.org/2000/svg">
<path d="M13.3929 0H1.60714C0.719531 0 0 0.718524 0 1.60489V13.3741C0 14.2605 0.719531 14.979 1.60714 14.979H13.3929C14.2805 14.979 15 14.2605 15 13.3741V1.60489C15 0.718524 14.2805 0 13.3929 0ZM13.3929 13.3741H1.60714V1.60489H13.3929V13.3741ZM12.1921 5.292L6.4134 11.0163C6.25587 11.1723 6.00147 11.1713 5.84521 11.014L2.80567 7.95412C2.64941 7.79681 2.65041 7.54276 2.80798 7.38669L3.56866 6.63319C3.72619 6.47715 3.98059 6.47815 4.13685 6.6355L6.13882 8.65088L10.8716 3.96272C11.0291 3.80667 11.2835 3.80768 11.4398 3.96499L12.1943 4.72457C12.3506 4.88192 12.3496 5.13596 12.1921 5.292Z" fill="#333333"/>
</svg>
