<svg version="1.1" id="Слой_1" xmlns="http://www.w3.org/2000/svg" x="0" y="0" viewBox="0 0 128 384" xml:space="preserve"><style>.st0{fill:#fff}</style><g id="Facebook_1_"><path class="st0" d="M41.3 267.2h67.6V384H41.3z"/><g id="XMLID_1_"><path id="svg_2" d="M128 276v87.9c0 11.1-9 20.1-20.1 20.1H89.3c-.5 0-.9-.4-.9-1v-47.6c0-.5.4-1 .9-1h14.9c.5 0 .9-.4.9-.8l2.3-17.4c.1-.5-.3-1-.9-1.1H89.3a.9.9 0 01-.9-.9v-11.4c0-5.6 1.6-9.4 9.6-9.4h9.3c.5 0 1-.4 1-.9V277c0-.5-.4-.9-.9-1-2.4-.3-7.9-.7-14.1-.7-14.8 0-24.8 9-24.8 25.5v13.3c0 .5-.4.9-1 .9H52.6c-.6 0-1 .4-1 1v17.4c0 .5.4.9 1 .9h14.8c.5 0 1 .4 1 1V383c0 .5-.4 1-1 1H20.1C9 384 0 375 0 363.9V276c0-11 9-20 20.1-20H108c11 0 20 9 20 20z" fill="#333"/></g></g><g id="Facebook_4_"><path class="st0" d="M41.9 11.1h67.6v116.8H41.9z"/><path id="Facebook_5_" d="M67.6 128H20.3C9.2 128 .2 119 .2 107.9V20.1C.2 9 9.2 0 20.3 0h87.9c11 0 20 9 20 20v87.9c0 11.1-9 20.1-20.1 20.1H89.5c-.6 0-1-.4-1-1V79.4c0-.5.4-1 1-1h14.8c.5 0 .9-.4.9-.8l2.2-17.4c.1-.5-.3-1-.9-1.1h-17c-.6 0-1-.4-1-1V46.8c0-5.6 1.6-9.4 9.6-9.4h9.3c.5 0 1-.4 1-1V20.9c0-.5-.4-.9-.9-1-2.4-.3-7.9-.7-14.1-.7-14.7 0-24.8 9-24.8 25.5V58c0 .5-.4 1-1 1H52.8c-.6 0-1 .4-1 1v17.4c0 .5.4 1 1 1h14.8c.5 0 1 .4 1 1V127c0 .6-.5 1-1 1z" fill-rule="evenodd" clip-rule="evenodd" fill="#4460a0"/></g></svg>
