<svg version="1.1" id="Social_Icons" xmlns="http://www.w3.org/2000/svg" x="0" y="0" viewBox="0 0 128 384" xml:space="preserve"><style>.st0{fill:none}</style><g id="Facebook_1_"><path class="st0" d="M0 256h128v128H0z"/><g id="XMLID_1_"><path d="M128 276v87.9c0 11.1-9 20.1-20.1 20.1H89.3c-.5 0-.9-.4-.9-1v-47.6c0-.5.4-1 .9-1h14.9c.5 0 .9-.4.9-.8l2.3-17.4a1 1 0 00-.9-1.1H89.3a.9.9 0 01-.9-.9v-11.4c0-5.6 1.6-9.4 9.6-9.4h9.3c.5 0 1-.4 1-.9V277c0-.5-.4-.9-.9-1-2.4-.3-7.9-.7-14.1-.7-14.8 0-24.8 9-24.8 25.5v13.3c0 .5-.4.9-1 .9H52.6a1 1 0 00-1 1v17.4c0 .5.4.9 1 .9h14.8c.5 0 1 .4 1 1V383c0 .5-.4 1-1 1H20.1C9 384 0 375 0 363.9V276c0-11 9-20 20.1-20H108c11 0 20 9 20 20z" fill="#333"/></g></g><g id="Facebook_4_"><path class="st0" d="M1.2 0h128v128H1.2z"/><path id="Facebook_5_" d="M68.6 128H21.3c-11.1 0-20.1-9-20.1-20.1V20.1C1.2 9 10.2 0 21.3 0h87.9c11 0 20 9 20 20v87.9c0 11.1-9 20.1-20.1 20.1H90.5a1 1 0 01-1-1V79.4c0-.5.4-1 1-1h14.8c.5 0 .9-.4.9-.8l2.2-17.4a1 1 0 00-.9-1.1h-17a1 1 0 01-1-1V46.8c0-5.6 1.6-9.4 9.6-9.4h9.3c.5 0 1-.4 1-1V20.9c0-.5-.4-.9-.9-1-2.4-.3-7.9-.7-14.1-.7-14.7 0-24.8 9-24.8 25.5V58c0 .5-.4 1-1 1H53.8a1 1 0 00-1 1v17.4c0 .5.4 1 1 1h14.8c.5 0 1 .4 1 1V127c0 .6-.5 1-1 1z" fill-rule="evenodd" clip-rule="evenodd" fill="#4460a0"/></g></svg>