<svg version="1.1" id="Слой_1" xmlns="http://www.w3.org/2000/svg" x="0" y="0" viewBox="0 0 53.3 160" xml:space="preserve"><style>.st1,.st2{fill:#fff}.st2{fill-rule:evenodd;clip-rule:evenodd}</style><path d="M53.3 120c0-7.4-6-13.3-13.3-13.3H13.3C6 106.7 0 112.6 0 120v26.7C0 154 6 160 13.3 160H40c7.4 0 13.3-6 13.3-13.3V120z" fill-rule="evenodd" clip-rule="evenodd" fill="#333"/><path class="st1" d="M34.6 114.7c5.6.1 10.7 4.8 10.8 10.8v15.8a11.2 11.2 0 01-10.8 10.8H18.8A11.2 11.2 0 018 141.3v-15.8c.1-5.6 4.8-10.7 10.8-10.8h15.8zm-15.7 2.5a8.5 8.5 0 00-8.3 8.3v15.7c0 4.3 3.7 8.2 8.3 8.3h15.7c4.3 0 8.2-3.7 8.3-8.3v-15.7c0-4.3-3.8-8.2-8.3-8.3H18.9z"/><path class="st1" d="M26.7 124c4.3 0 8.3 3.4 9.1 7.6.6 3-.5 6.3-2.7 8.5a9.6 9.6 0 01-9.7 2 9.5 9.5 0 01-6.1-9.2 9.6 9.6 0 019.4-8.9zm-.1 2.5a7 7 0 00-6.6 5.4 7 7 0 004 7.7 7.1 7.1 0 008.8-3.3c1.6-3.2.1-7.6-3.2-9.2a8 8 0 00-3-.6z"/><path class="st2" d="M38.7 123.3c0-.5-.2-1-.6-1.4a2 2 0 00-1.4-.6h-.1a2 2 0 00-1.4.6 2 2 0 00-.6 1.4v.1c0 .5.2 1 .6 1.4.4.4.9.6 1.4.6 1.2-.1 2.1-1 2.1-2.1z"/><radialGradient id="SVGID_1_" cx="-4.5" cy="162.8" r="1" gradientTransform="matrix(74.488 0 0 -74.488 332.2 12179.5)" gradientUnits="userSpaceOnUse"><stop offset="0" stop-color="#ff8100"/><stop offset=".2" stop-color="#ff7209"/><stop offset=".3" stop-color="#f55e16"/><stop offset=".5" stop-color="#d92938"/><stop offset="1" stop-color="#9100ff"/></radialGradient><path d="M53.3 13.3C53.3 6 47.4 0 40 0H13.3C6 0 0 6 0 13.3V40c0 7.4 6 13.3 13.3 13.3H40c7.4 0 13.3-6 13.3-13.3V13.3z" fill-rule="evenodd" clip-rule="evenodd" fill="url(#SVGID_1_)"/><path class="st1" d="M34.6 8c5.6.1 10.7 4.8 10.8 10.8v15.8a11.2 11.2 0 01-10.8 10.8H18.8A11.2 11.2 0 018 34.6V18.8C8.1 13.2 12.8 8.1 18.8 8h15.8zm-15.7 2.5a8.5 8.5 0 00-8.3 8.3v15.7c0 4.3 3.7 8.2 8.3 8.3h15.7c4.3 0 8.2-3.7 8.3-8.3V18.8c0-4.3-3.8-8.2-8.3-8.3H18.9z"/><path class="st1" d="M26.7 17.3c4.3 0 8.3 3.4 9.1 7.6.6 3-.5 6.3-2.7 8.5a9.6 9.6 0 01-9.7 2 9.5 9.5 0 01-6.1-9.2 9.6 9.6 0 019.4-8.9zm-.1 2.6a7 7 0 00-6.6 5.4 7 7 0 004 7.7 7.1 7.1 0 008.8-3.3c1.6-3.2.1-7.6-3.2-9.2a8 8 0 00-3-.6z"/><path class="st2" d="M38.7 16.6c0-.5-.2-1-.6-1.4a2 2 0 00-1.4-.6h-.1a2 2 0 00-1.4.6 2 2 0 00-.6 1.4v.1c0 .5.2 1 .6 1.4a2 2 0 003.5-1.5z"/></svg>
