<svg xmlns="http://www.w3.org/2000/svg" viewBox="0 0 512 512"><path d="M296.5 121a63.9 63.9 0 015 94.5 61.7 61.7 0 01-37.6 18.8 65.4 65.4 0 01-40.8-8.5 74 74 0 01-23.4-24.5 64.2 64.2 0 0169.8-93.2 73.7 73.7 0 0127 12.9z" fill="#910000"/><path d="M423.2 138.3c3 14.8 3.3 48.1.5 61.9a182.1 182.1 0 01-20.9 56c-2.8 4.6-58.1 66.2-96.8 133.8-38.8 67.5-49.6 120-50 120s-14-52.6-51-117c-37-64.5-88.1-123.7-92.6-131.2a185.1 185.1 0 01-24.1-61.6c-2.8-13.8-2.5-47.1.5-61.9a173.7 173.7 0 0154.2-95 172.4 172.4 0 0198.6-42.2l12-1c5.2-.3 28.7 2.2 37.2 3.9a171.2 171.2 0 01132.4 134.3zm-121.7 77.2a63.9 63.9 0 00-5-94.5 73.7 73.7 0 00-27-12.9 64.2 64.2 0 00-69.8 93.2 74 74 0 0023.4 24.5 65.4 65.4 0 0040.8 8.5 61.7 61.7 0 0037.6-18.8z" fill="#d11c1c"/></svg>