<svg xmlns="http://www.w3.org/2000/svg" viewBox="0 0 64 192">
  <g id="Слой_2" data-name="Слой 2">
    <g id="Слой_1-2" data-name="Слой 1">
      <rect y="128" width="64" height="64" rx="11.2" fill="#333"/>
      <path class="cls-2" d="M9.6 147.8h7.7a.8.8 0 01.7.5c.9 2.2 4.4 10.7 7.6 11.4 2.4 0 1.6-11.4-1.5-11.4-.8 0 1.5-1.4 1.6-1.4a16.3 16.3 0 018.7 0c1.5.6 1.8 2.4 1.8 4s-1.7 8 .6 8.6c3 1 6.9-8.5 7.8-10.8a.8.8 0 01.7-.5h8.6a.8.8 0 01.7.8.8.8 0 010 .3 74.4 74.4 0 01-6.3 11.5 1.6 1.6 0 00.1 2c2.6 2.8 9.6 10.5 5.6 10.5h-8.6a1.6 1.6 0 01-1.2-.5c-1.4-1.5-5.3-5.6-7-5.3-1.5.3-1.6 2.8-1.5 4.4a1.6 1.6 0 01-1.5 1.7 78 78 0 01-3.8.1c-6.1-.4-9.7-4.4-13.2-9A56.4 56.4 0 019 148.8a.8.8 0 01.5-1 .7.7 0 01.2 0z" fill="#ffffff"/>
      <g id="_32-vk" data-name="32-vk">
        <rect width="64" height="64" rx="11.2" fill="#4489c8"/>
        <path class="cls-2" d="M9.6 19.8h7.7a.8.8 0 01.7.5c.9 2.2 4.4 10.7 7.6 11.4 2.4 0 1.6-11.4-1.5-11.4-.8 0 1.5-1.4 1.6-1.4a16.3 16.3 0 018.7 0c1.5.6 1.8 2.4 1.8 4s-1.7 8 .6 8.6c3 1 6.9-8.5 7.8-10.8a.8.8 0 01.7-.5h8.6a.8.8 0 01.7.8.8.8 0 010 .3 74.4 74.4 0 01-6.3 11.5 1.6 1.6 0 00.1 2C51 37.6 58 45.3 54 45.3h-8.6a1.6 1.6 0 01-1.2-.5c-1.4-1.5-5.3-5.6-7-5.3-1.5.3-1.6 2.8-1.5 4.4a1.6 1.6 0 01-1.5 1.7 78 78 0 01-3.8.1c-6.1-.4-9.7-4.5-13.2-9A56.4 56.4 0 019 20.8a.8.8 0 01.5-1 .7.7 0 01.2 0z" fill="#ffffff"/>
      </g>
    </g>
  </g>
</svg>
