<svg version="1.1" id="Слой_1" xmlns="http://www.w3.org/2000/svg" x="0" y="0" viewBox="0 0 75 225" xml:space="preserve"><style>.st0{fill:#333}.st1{fill:#fefefe}.st2{fill:#ed2524}</style><g id="_541894160"><g id="XMLID_1_"><path class="st0" d="M0 210v-45a15 15 0 0115-15h44.9A15 15 0 0175 165.1V210c0 8.3-6.8 15.1-15.1 15.1H15C6.7 225 0 218.3 0 210zm63.1-20.5v-4.1c0-4.3-.5-8.6-.5-8.6s-.5-3.7-2-5.3c-1.9-2.1-4.1-2.1-5.1-2.3-7.2-.5-17.9-.5-17.9-.5s-10.7 0-17.9.5c-1 .1-3.2.1-5.1 2.3-1.5 1.6-2 5.3-2 5.3s-.5 4.3-.5 8.6v4c0 4.3.5 8.6.5 8.6s.5 3.7 2 5.3c2 2.1 4.5 2.1 5.6 2.3 4.1.4 17.4.5 17.4.5s10.7 0 17.9-.6c1-.1 3.2-.1 5.1-2.3 1.5-1.6 2-5.3 2-5.3s.5-4.1.5-8.4z"/><path class="st1" d="M63.1 186.2v3.3c0 4.3-.5 8.6-.5 8.6s-.5 3.7-2 5.3c-1.9 2.1-4.1 2.1-5.1 2.3-7.2.5-17.9.6-17.9.6s-13.3-.1-17.4-.5c-1.1-.2-3.7-.1-5.6-2.3-1.5-1.6-2-5.3-2-5.3s-.5-4.3-.5-8.6v-4.1c0-4.3.5-8.6.5-8.6s.5-3.7 2-5.3c2-2.1 4.1-2.1 5.1-2.3 7.2-.5 17.9-.5 17.9-.5s10.7 0 17.9.5c1 .1 3.2.1 5.1 2.3 1.5 1.6 2 5.3 2 5.3s.5 4.3.5 8.6v.7zm-30.9 8.2L46 187l-7.6-4.1-6.2-3.4v14.9z"/><path class="st0" d="M46 187l-13.8 7.4v-15l6.3 3.4z"/></g></g><g id="_541894160_1_"><g id="XMLID_2_"><path class="st2" d="M75 15.1V60a15 15 0 01-15.1 15H15A15 15 0 010 60V15A15 15 0 0115 0h45a15 15 0 0115 15.1zM63.1 39.5v-4.1c0-4.3-.5-8.6-.5-8.6s-.5-3.7-2-5.3c-1.9-2.1-4.1-2.1-5.1-2.3-7.2-.5-17.9-.5-17.9-.5s-10.7 0-17.9.5c-1 .1-3.2.1-5.1 2.3-1.5 1.6-2 5.3-2 5.3s-.5 4.3-.5 8.6v4.1c0 4.3.5 8.6.5 8.6s.5 3.7 2 5.3c2 2.1 4.5 2 5.6 2.3 4.1.4 17.4.5 17.4.5s10.7 0 17.9-.5c1-.1 3.2-.1 5.1-2.3 1.5-1.6 2-5.3 2-5.3s.5-4.3.5-8.6z"/><path class="st1" d="M63.1 36.2v3.3c0 4.3-.5 8.6-.5 8.6s-.5 3.7-2 5.3c-1.9 2.1-4.1 2.1-5.1 2.3-7.2.5-17.9.5-17.9.5s-13.3-.1-17.4-.5c-1.1-.2-3.7-.2-5.6-2.3-1.5-1.6-2-5.3-2-5.3s-.5-4.3-.5-8.6v-4c0-4.3.5-8.6.5-8.6s.5-3.7 2-5.3c2-2.1 4.1-2.1 5.1-2.3 7.2-.5 17.9-.5 17.9-.5s10.7 0 17.9.5c1 .1 3.2.1 5.1 2.3 1.5 1.6 2 5.3 2 5.3s.5 4.3.5 8.6v.7zm-30.9 8.2L46 37l-7.6-4.1-6.2-3.4v14.9z"/><path class="st2" d="M46 37l-13.8 7.4v-15l6.3 3.4z"/></g></g></svg>